<?xml version="1.0" encoding="UTF-8"?>
<svg version="1.1" xmlns="http://www.w3.org/2000/svg" width="1563" height="1563">
<path d="M0 0 C3.86732545 1.93366273 6.32852611 4.05211024 9.3024292 7.06192017 C9.82445805 7.58224017 10.3464869 8.10256016 10.8843348 8.63864744 C12.63177923 10.38279846 14.37198085 12.134 16.11230469 13.88525391 C17.36368071 15.13719408 18.61549731 16.38869401 19.86772156 17.63978577 C23.26649751 21.03798734 26.65906695 24.44232501 30.05057049 27.84778261 C33.59575325 31.40545843 37.14659148 34.95748034 40.69683838 38.51010132 C47.41912898 45.23861087 54.13630459 51.97220295 60.85166574 58.70762765 C68.49700444 66.37531241 76.14801538 74.03732648 83.79951239 81.69886518 C99.53933615 97.45960035 115.27200897 113.22745724 131 129 C129.40487165 132.89098177 126.89836547 135.3505965 123.94480896 138.3024292 C123.42519453 138.82445805 122.90558009 139.3464869 122.37021977 139.8843348 C120.62840932 141.63177967 118.87954399 143.37198636 117.13061523 145.11230469 C115.88030458 146.36368826 114.63042699 147.61550466 113.38095093 148.86772156 C109.98692122 152.26660001 106.58667216 155.65919347 103.18514895 159.05057049 C99.63089891 162.59604471 96.08191415 166.14678212 92.53224182 169.69683838 C86.57283188 175.65531174 80.60956053 181.60989825 74.64379883 187.56201172 C67.73649098 194.45357612 60.83444177 201.35037129 53.935368 208.2501781 C47.30738496 214.87877036 40.67655455 221.50450614 34.04411507 228.12863922 C31.21678269 230.95243188 28.39030953 233.77708054 25.56448174 236.60237885 C22.24184466 239.92401518 18.91668254 243.24310287 15.58950424 246.5601902 C14.36512115 247.78164011 13.14159551 249.0039502 11.91896629 250.22715569 C10.25767888 251.88892998 8.59337465 253.54762023 6.9282074 255.20550537 C5.99518516 256.13685177 5.06216291 257.06819817 4.10086727 258.02776718 C2 260 2 260 1 260 C0.67 174.2 0.34 88.4 0 0 Z " fill="#FFFFFF" transform="translate(417,541)"/>
<path d="M0 0 C4.98202801 1.37574272 7.82767413 4.7993562 11.37159729 8.43742371 C12.58499535 9.64709808 12.58499535 9.64709808 13.82290649 10.88121033 C16.4983544 13.55573872 19.15178911 16.25104184 21.80543518 18.94718933 C23.66215031 20.81256094 25.52012469 22.67667992 27.37930298 24.53959656 C31.27859631 28.45084968 35.16679445 32.37284523 39.04737854 36.30265808 C44.49829059 41.82267985 49.96887314 47.32287151 55.44359004 52.81927013 C59.71395374 57.10801792 63.97874752 61.40230198 68.24293518 65.69718933 C69.14531355 66.6059935 70.04769192 67.51479767 70.97741508 68.45114136 C73.54786191 71.04272042 76.11468436 73.63783008 78.68019104 76.23429871 C79.43105988 76.99099854 80.18192871 77.74769836 80.95555115 78.52732849 C84.1998335 81.81765997 87.3647434 85.12771915 90.36662292 88.64137268 C95.29662208 94.34618307 100.72544775 99.56938618 106.08448792 104.86564636 C107.28774144 106.05877838 108.4907216 107.25218613 109.69345093 108.44584656 C112.26930764 111.00170283 114.84650583 113.55619599 117.42460442 116.1097908 C121.50049621 120.14811978 125.56975441 124.19308838 129.63748169 128.23963928 C130.66965251 129.26635402 130.66965251 129.26635402 131.72267526 130.31381047 C133.12873827 131.71246915 134.5347854 133.11114379 135.940817 134.50983405 C145.40193333 143.92104325 154.86733667 153.32782916 164.35108948 162.7162323 C170.76296618 169.06374348 177.16419872 175.42177572 183.55326325 181.79225051 C186.93117043 185.15947321 190.31435324 188.52099229 193.71064568 191.8696785 C196.89923477 195.01372393 200.07365675 198.17139286 203.23766899 201.34016418 C204.40152048 202.50076409 205.57053971 203.65620791 206.74499893 204.80607224 C208.34622418 206.37525721 209.92793026 207.9618352 211.50610352 209.55415344 C212.84197085 210.87977641 212.84197085 210.87977641 214.2048254 212.23217964 C216.09059143 214.85343933 216.09059143 214.85343933 216.70636177 217.81072998 C215.8766002 221.91083536 213.73134332 224.02530334 210.82275391 226.83607483 C209.97261635 227.69284386 209.97261635 227.69284386 209.1053043 228.56692135 C207.2008695 230.47890234 205.27578395 232.36862787 203.35011292 234.25920105 C201.98088274 235.6251018 200.61297897 236.99233329 199.24630737 238.36079407 C195.52775655 242.07679172 191.7910533 245.77404549 188.05103946 249.46842337 C184.13818706 253.34004431 180.24270914 257.22906394 176.3454895 261.1164093 C168.95299943 268.48506565 161.5457821 275.83872583 154.13282114 283.186782 C143.27136019 293.95444508 132.43189084 304.74420949 121.59261417 315.53419685 C119.99030826 317.12915373 118.38799527 318.72410351 116.78567505 320.31904602 C116.00296441 321.09820692 115.22025376 321.87736782 114.41382462 322.68013966 C109.77182099 327.30009382 105.12555539 331.91570759 100.47538269 336.52743888 C97.57505804 339.40428315 94.67666532 342.28306908 91.77854729 345.16213608 C90.43916699 346.49170044 89.09887738 347.82034952 87.75758743 349.14798737 C78.91615416 357.8877302 78.91615416 357.8877302 70.59196758 367.11560059 C67.94265408 370.18217364 65.08737555 373.04566618 62.24073792 375.92790222 C61.59586426 376.58416595 60.9509906 377.24042969 60.28657532 377.9165802 C53.6346257 384.67793281 46.95192729 391.40903252 40.26661682 398.13737488 C37.09637335 401.33003041 33.93621203 404.53219419 30.78419495 407.74284363 C26.96599653 411.63189179 23.13109372 415.50368888 19.28347969 419.36363029 C17.82261082 420.83492024 16.36777601 422.31222693 14.91914177 423.79556465 C12.89910191 425.86153808 10.8583401 427.90460495 8.81105042 429.94352722 C8.2171199 430.56105362 7.62318939 431.17858002 7.01126099 431.81481934 C4.25445807 434.51731927 2.79705997 435.83802489 -1.14033508 435.92393494 C-4.05766715 434.79612407 -5.08777823 434.09457169 -6.93504333 431.63542175 C-10.12336652 427.70945228 -13.51949074 424.15007713 -17.12010193 420.60856628 C-17.70048501 420.03582065 -18.28086809 419.46307501 -18.87883854 418.87297344 C-20.11036718 417.65903941 -21.34280766 416.44602987 -22.57607841 415.23386574 C-25.20838384 412.64403028 -27.83103742 410.04450921 -30.45437717 407.44559765 C-35.323733 402.62182216 -40.19702662 397.80218471 -45.08641052 392.998703 C-48.50280582 389.64159786 -51.90694794 386.27249267 -55.30323982 382.89505577 C-56.59655873 381.61348519 -57.89440233 380.3364641 -59.19680595 379.06412697 C-61.01102047 377.29080157 -62.80921155 375.50260633 -64.60447693 373.71012878 C-65.14517319 373.18897995 -65.68586945 372.66783112 -66.24295044 372.13088989 C-68.30722327 370.0435762 -69.77968275 368.47533309 -70.38813114 365.55848694 C-69.68460299 361.5831633 -67.23060261 359.50089046 -64.44261169 356.78536987 C-63.85458015 356.19306621 -63.26654861 355.60076254 -62.66069794 354.99051028 C-60.68238454 353.00394491 -58.68669816 351.03580451 -56.69065857 349.06706238 C-55.27088378 347.64869757 -53.85220832 346.22923161 -52.43455505 344.80874634 C-48.57802733 340.95078113 -44.70625203 337.1084504 -40.83161926 333.26868033 C-36.78679401 329.25506272 -32.75607728 325.2273282 -28.72386169 321.2010498 C-21.08398371 313.57672663 -13.43144693 305.96524083 -5.77431488 298.35825044 C2.94151536 289.69826244 11.64319115 281.02411156 20.34368896 272.34872377 C38.24358397 254.50112406 56.16123923 236.67144322 74.09059143 218.85343933 C71.2688981 214.33111559 68.10033035 210.59037651 64.29463196 206.85061646 C63.43195941 205.99067238 63.43195941 205.99067238 62.55185914 205.1133557 C60.63425455 203.20412769 58.70960127 201.30216941 56.78492737 199.40007019 C55.40457763 198.02847471 54.02470693 196.65639699 52.64527893 195.28387451 C49.67962198 192.33467956 46.71103039 189.38848184 43.740242 186.4444561 C39.04527794 181.79089075 34.35958398 177.12806713 29.6756134 172.46343994 C16.35708535 159.20246961 3.028525 145.95163908 -10.31468201 132.71549988 C-17.68814839 125.40104057 -25.05268545 118.0777124 -32.40747619 110.74447352 C-37.06397831 106.10263526 -41.73135958 101.47210838 -46.40696001 96.84951198 C-49.30805956 93.97608839 -52.19868243 91.09230553 -55.08638 88.20541954 C-56.43009317 86.86628703 -57.77812429 85.53147165 -59.1306839 84.20127487 C-60.97261715 82.38858067 -62.79861573 80.56121358 -64.62138367 78.72927856 C-65.16338795 78.20320273 -65.70539223 77.67712689 -66.26382089 77.13510936 C-68.48966854 74.86925109 -69.81903576 73.34908887 -70.3963604 70.18275261 C-69.85109407 67.57449442 -69.26761822 66.58218915 -67.40620422 64.70858765 C-66.85112686 64.137966 -66.2960495 63.56734436 -65.72415161 62.97943115 C-64.79854179 62.0666465 -64.79854179 62.0666465 -63.85423279 61.13542175 C-62.88845558 60.15409271 -62.88845558 60.15409271 -61.90316772 59.15293884 C-59.7693854 56.9920329 -57.61768582 54.85006155 -55.46409607 52.70890808 C-53.97565129 51.21455678 -52.48787728 49.71953708 -51.00074768 48.22387695 C-47.87990332 45.09114218 -44.74992396 41.96789808 -41.61351013 38.85075378 C-37.59297575 34.85310091 -33.59779401 30.8311554 -29.60934258 26.80152416 C-26.54191053 23.70852975 -23.46054415 20.62972376 -20.37486649 17.55494118 C-18.89592544 16.07748842 -17.42157378 14.59542695 -15.95191574 13.10873985 C-13.89568653 11.03257326 -11.82126517 8.97647937 -9.74095154 6.92448425 C-9.13602371 6.30584 -8.53109589 5.68719574 -7.90783691 5.04980469 C-5.30625763 2.51860397 -3.51902098 1.03226166 0 0 Z M-9.46073914 18.28034973 C-10.21275604 19.03775955 -10.21275604 19.03775955 -10.97996521 19.81047058 C-11.50680405 20.33716339 -12.03364288 20.8638562 -12.57644653 21.4065094 C-14.3265317 23.1572942 -16.07304307 24.91160035 -17.81956482 26.66593933 C-19.02861141 27.87684992 -20.2378782 29.0875407 -21.44735718 30.29801941 C-24.63725465 33.49174349 -27.82413838 36.68845873 -31.01042175 39.88578796 C-34.25945489 43.14503215 -37.51130441 46.4014636 -40.76292419 49.65812683 C-47.14785872 56.05380121 -53.52961571 62.45263633 -59.90940857 68.85343933 C-58.32185529 72.71192673 -55.85740453 75.15292398 -52.92478943 78.08097839 C-52.418918 78.58874817 -51.91304657 79.09651794 -51.3918457 79.61967468 C-49.72415619 81.29105901 -48.04939383 82.95515145 -46.37425232 84.61906433 C-45.21328899 85.7788354 -44.05269524 86.93897654 -42.89245605 88.09947205 C-40.46360714 90.52675852 -38.03143945 92.95065225 -35.59666443 95.37199402 C-32.46852024 98.48310138 -29.34704689 101.60079868 -26.22778988 104.72081375 C-23.83384498 107.11448747 -21.43730862 109.50555187 -19.03987312 111.89572906 C-17.88736798 113.04504267 -16.73547576 114.19497122 -15.58419609 115.34551239 C-13.98017897 116.94737375 -12.37292054 118.54590598 -10.76463318 120.14347839 C-9.39135109 121.51104279 -9.39135109 121.51104279 -7.99032593 122.90623474 C-6.26269262 124.96731569 -6.26269262 124.96731569 -4.90940857 124.85343933 C-4.90940857 88.55343933 -4.90940857 52.25343933 -4.90940857 14.85343933 C-6.93642032 14.85343933 -8.10819617 16.9318865 -9.46073914 18.28034973 Z M4.09059143 14.85343933 C-6.47051902 92.29529571 -6.47051902 92.29529571 19.59624863 163.2862854 C24.69209179 169.89553101 30.25221674 175.95864196 36.15309143 181.85343933 C36.98425728 182.68374916 37.81542313 183.51405899 38.67177582 184.36952972 C66.7485673 211.77506834 97.32322945 219.43014028 135.29394817 219.12526512 C157.6550177 218.80962858 179.93523033 216.83858633 202.09059143 213.85343933 C197.74179983 208.65126214 193.17110042 203.80062302 188.36036682 199.02555847 C187.60995621 198.27660812 186.85954559 197.52765778 186.08639526 196.75601196 C184.46700822 195.14041153 182.84646758 193.52596674 181.22488594 191.91256905 C178.65350741 189.35402876 176.08533094 186.79231247 173.51794434 184.22976685 C167.14197652 177.86712436 160.76058122 171.50993427 154.37934875 165.15257263 C148.98103588 159.77404034 143.58480808 154.39343227 138.19129753 149.01008415 C135.67028434 146.49551834 133.14626044 143.98400199 130.62210083 141.47259521 C129.06465488 139.91878458 127.50735072 138.36483181 125.95021057 136.81071472 C125.25544617 136.12111664 124.56068176 135.43151855 123.84486389 134.72102356 C120.699036 131.57553308 117.65482648 128.39653496 114.75619507 125.02102661 C110.28178806 119.8405483 105.42440636 115.04720855 100.58131409 110.21476746 C99.53737612 109.16947171 98.49365041 108.12396396 97.45011902 107.07826233 C94.63882949 104.26244723 91.82442666 101.44976392 89.00928164 98.63780403 C86.05875644 95.68982306 83.11068583 92.739389 80.16221619 89.78935242 C75.21972661 84.84504915 70.27514427 79.90284616 65.32936096 74.96183777 C59.60549331 69.2434323 53.88526541 63.52140484 48.16687357 57.79752398 C43.25224609 52.87836763 38.33568414 47.96115111 33.41748083 43.0455699 C30.48165982 40.11131021 27.54652429 37.17637341 24.61313248 34.23968506 C21.86240397 31.48608043 19.10926483 28.73490954 16.35419846 25.98564529 C15.34105228 24.97382721 14.3287669 23.9611464 13.31738281 22.94756699 C11.94319407 21.57066923 10.56565363 20.19711892 9.18791199 18.82377625 C8.41624506 18.05248634 7.64457813 17.28119644 6.84952736 16.48653412 C5.36848182 14.74003838 5.36848182 14.74003838 4.09059143 14.85343933 Z M91.09059143 221.85343933 C94.77623652 226.15335861 98.29263337 230.17931018 102.26979065 234.14616394 C102.74859177 234.62511108 103.22739288 235.10405823 103.72070312 235.59751892 C105.27653219 237.15266099 106.83585359 238.70424798 108.39527893 240.25578308 C109.48551508 241.34415072 110.57552812 242.4327419 111.66532898 243.52154541 C114.51370937 246.36613469 117.36508147 249.20770614 120.21711731 252.04862976 C123.13511143 254.95633599 126.05022447 257.86692757 128.96559143 260.77726746 C134.67113127 266.47213014 140.37983937 272.16380345 146.09059143 277.85343933 C152.6094902 272.48449783 158.53416732 266.5557478 164.49293518 260.58390808 C165.58137679 259.49614108 166.66996672 258.40852248 167.75869751 257.32104492 C170.02533378 255.05587448 172.29017227 252.78892612 174.5537262 250.52067566 C177.4613133 247.60735084 180.3734223 244.69859362 183.28685665 241.79111767 C185.52847559 239.55309972 187.76772299 237.31272122 190.00624275 235.07160378 C191.08006373 233.99711435 192.15463179 232.92337103 193.22994804 231.85037804 C194.72360031 230.35924908 196.21403739 228.8649811 197.70362854 227.36979675 C198.55299484 226.51963486 199.40236115 225.66947296 200.27746582 224.79354858 C202.20439018 223.17424666 202.20439018 223.17424666 202.09059143 221.85343933 C165.46059143 221.85343933 128.83059143 221.85343933 91.09059143 221.85343933 Z M76.4604187 228.3480835 C75.80011154 229.01041489 75.13980438 229.67274628 74.45948792 230.35514832 C73.76683838 231.04604553 73.07418884 231.73694275 72.36054993 232.44877625 C70.05839564 234.74650836 67.75994294 237.047904 65.46168518 239.34953308 C63.87142355 240.93912178 62.28101343 242.52856196 60.69046021 244.11785889 C57.35223526 247.45460636 54.01583405 250.7931642 50.68067932 254.13298035 C46.39406843 258.42528855 42.10298515 262.71309308 37.81053066 266.99955654 C34.52405425 270.28242866 31.23995205 273.56766751 27.95657539 276.8536396 C26.37477722 278.43610741 24.79222886 280.01782571 23.20893669 281.59879875 C21.00096973 283.80424135 18.79620838 286.01283808 16.59230042 288.22233582 C15.92996902 288.88264297 15.26763763 289.54295013 14.5852356 290.2232666 C11.54676575 292.66088046 11.54676575 292.66088046 10.09059143 295.85343933 C25.41575923 296.11107311 40.74082691 296.3047024 56.0676775 296.42337322 C63.18534805 296.47995483 70.30166867 296.55700526 77.41847229 296.68327332 C83.62588994 296.79335376 89.83232966 296.86398078 96.04069632 296.88841277 C99.32493567 296.90268454 102.60574665 296.94177617 105.88924599 297.01646996 C121.39605325 298.07146381 121.39605325 298.07146381 134.85808086 291.84273243 C136.85830614 289.66047461 138.54372342 287.37437376 140.09059143 284.85343933 C138.78116039 281.95834749 137.38792642 279.90751396 135.12892151 277.68058777 C134.5310231 277.08606812 133.93312469 276.49154846 133.31710815 275.87901306 C132.67130295 275.24666748 132.02549774 274.6143219 131.36012268 273.96281433 C130.6914769 273.29937012 130.02283112 272.6359259 129.33392334 271.95237732 C127.19501061 269.83125527 125.04955523 267.71691765 122.90309143 265.60343933 C120.77530384 263.50344226 118.64905314 261.40194801 116.52581787 259.29734802 C115.20631734 257.98991389 113.88415538 256.6851579 112.55880737 255.38365173 C108.75241695 251.61777111 105.17329075 247.72166949 101.67504883 243.66844177 C99.69949047 241.40543158 97.62684325 239.26024491 95.50465393 237.13468933 C94.71961487 236.34836121 93.93457581 235.56203308 93.12574768 234.75187683 C92.33039612 233.96039246 91.53504456 233.16890808 90.71559143 232.35343933 C89.4877594 231.11980652 89.4877594 231.11980652 88.23512268 229.86125183 C87.45781799 229.08523621 86.68051331 228.30922058 85.87965393 227.50968933 C84.82318665 226.45491394 84.82318665 226.45491394 83.74537659 225.37882996 C80.38198364 222.27843469 79.18834796 225.63300084 76.4604187 228.3480835 Z M4.09059143 303.85343933 C4.09059143 342.46343933 4.09059143 381.07343933 4.09059143 420.85343933 C8.60513965 416.98382657 12.92129895 413.16883077 17.09840393 408.97502136 C17.65388916 408.42128845 18.20937439 407.86755554 18.7816925 407.29704285 C20.59549481 405.48759868 22.40566482 403.67457209 24.21559143 401.86125183 C25.48904598 400.58847215 26.76264883 399.31584085 28.03639221 398.04335022 C30.69736234 395.38384898 33.35652958 392.72256171 36.01441956 390.0599823 C39.40337037 386.66534055 42.79678375 383.27520099 46.1915741 379.88640022 C48.82037642 377.26123038 51.44676897 374.63365998 54.07246399 372.00538254 C55.32192313 370.75526125 56.57211184 369.50586866 57.82307434 368.25725174 C63.50969867 362.57895247 69.13701101 356.92647787 74.35624695 350.81016541 C78.16778342 346.50990506 82.31937155 342.52561053 86.39918518 338.48234558 C87.37596594 337.50998004 88.35244681 336.53731317 89.3286438 335.56436157 C92.39228907 332.51202879 95.4599118 329.46371325 98.52809143 326.41593933 C102.11026251 322.85738544 105.69077669 319.2971953 109.26715279 315.7328167 C110.69662682 314.30983554 112.1290688 312.88988827 113.56164551 311.47003174 C114.41996475 310.61501572 115.278284 309.75999969 116.16261292 308.8790741 C116.92315475 308.12376907 117.68369659 307.36846405 118.46728516 306.590271 C120.20439592 305.12789797 120.20439592 305.12789797 120.09059143 303.85343933 C81.81059143 303.85343933 43.53059143 303.85343933 4.09059143 303.85343933 Z M-9.46073914 314.28034973 C-10.21275604 315.03775955 -10.21275604 315.03775955 -10.97996521 315.81047058 C-11.50680405 316.33716339 -12.03364288 316.8638562 -12.57644653 317.4065094 C-14.3265317 319.1572942 -16.07304307 320.91160035 -17.81956482 322.66593933 C-19.02861141 323.87684992 -20.2378782 325.0875407 -21.44735718 326.29801941 C-24.63725465 329.49174349 -27.82413838 332.68845873 -31.01042175 335.88578796 C-34.25945489 339.14503215 -37.51130441 342.4014636 -40.76292419 345.65812683 C-47.14785872 352.05380121 -53.52961571 358.45263633 -59.90940857 364.85343933 C-56.54167055 368.85290922 -53.14356801 372.74188468 -49.41331482 376.41203308 C-48.60700623 377.2106073 -47.80069763 378.00918152 -46.96995544 378.83195496 C-45.30852765 380.46740265 -43.64706946 382.10281946 -41.98558044 383.73820496 C-38.37824225 387.31099562 -34.82566721 390.87425425 -31.52268982 394.73234558 C-27.27449348 399.68063776 -22.65512558 404.25782315 -18.03684998 408.85636902 C-16.5126983 410.37507199 -14.99407813 411.89916445 -13.47581482 413.42375183 C-12.50868811 414.3902192 -11.54125204 415.35637712 -10.57347107 416.32218933 C-9.2656366 417.62833191 -9.2656366 417.62833191 -7.93138123 418.96086121 C-6.24931455 420.96733272 -6.24931455 420.96733272 -4.90940857 420.85343933 C-4.90940857 384.55343933 -4.90940857 348.25343933 -4.90940857 310.85343933 C-6.93642032 310.85343933 -8.10819617 312.9318865 -9.46073914 314.28034973 Z " fill="#FFFFFF" transform="translate(530.9094085693359,452.1465606689453)"/>
<path d="M0 0 C4.41012094 0.67181536 6.55322783 3.01292691 9.54221344 6.09195709 C10.15085033 6.69476187 10.75948722 7.29756664 11.38656765 7.91863823 C13.42523588 9.94506872 15.44171008 11.99223524 17.45897675 14.03995514 C18.91518484 15.49621862 20.37270704 16.95116907 21.83144379 18.4048996 C25.79342885 22.36088126 29.73653199 26.335214 33.67645144 30.31315613 C37.8040515 34.4745377 41.94824491 38.61932842 46.0905838 42.76602936 C53.04993511 49.73734935 59.99825522 56.7195031 66.93895721 63.70938873 C76.71256807 73.55221432 86.50598792 83.37514186 96.30341804 93.19425011 C103.92113474 100.83030422 111.53332726 108.47186457 119.14476776 116.11417389 C119.95881285 116.93139042 120.77285795 117.74860695 121.61157107 118.59058762 C126.30275557 123.30066509 130.9911333 128.01350528 135.67536545 132.73049736 C137.09227293 134.15667825 138.50997513 135.58207011 139.92854881 137.0065937 C152.47113774 149.60427693 152.47113774 149.60427693 157.7856245 155.84657669 C160.13153408 158.54966381 162.67623523 161.0382409 165.23827362 163.53458405 C165.79524933 164.08206802 166.35222504 164.629552 166.9260788 165.1936264 C168.1188442 166.36605877 169.31265931 167.53742405 170.50745201 168.70779037 C173.71044529 171.84931505 176.89774621 175.00672589 180.08812714 178.16104889 C184.1316444 182.15657059 188.17962593 186.14728886 192.24266815 190.12296295 C195.54456927 193.35467366 198.83167621 196.60079085 202.10936928 199.85704422 C203.35715242 201.09124406 204.61033162 202.32001336 205.86896324 203.54314804 C207.62335196 205.24933351 209.35824251 206.97328023 211.08983612 208.7025528 C211.87282829 209.45083092 211.87282829 209.45083092 212.67163849 210.21422577 C214.98318538 212.55926652 216.15010016 214.05454838 216.6133976 217.35155487 C216.09316908 221.40969301 214.77936564 222.65928145 211.89243317 225.52271271 C211.19542883 226.22634852 211.19542883 226.22634852 210.48434359 226.9441992 C208.92532431 228.51075302 207.3458627 230.0548961 205.76561737 231.60001373 C204.64268932 232.71961161 203.52108814 233.84054165 202.40071869 234.96269989 C199.3536072 238.00725994 196.28841606 241.03301725 193.21984935 244.05593061 C190.00766434 247.22684939 186.81288365 250.41520256 183.61634064 253.60187531 C177.55193775 259.64245054 171.47283947 265.66800219 165.3879686 271.68795168 C156.47786251 280.50428563 147.5896884 289.3426851 138.70176029 298.18136787 C137.3865101 299.48926855 136.07125308 300.79716236 134.75598907 302.10504913 C134.11334518 302.74414329 133.47070128 303.38323745 132.80858332 304.0416981 C129.00287928 307.82538407 125.19291579 311.60471412 121.37900817 315.38013053 C118.99763687 317.73797878 116.61822725 320.0978007 114.23909378 322.45790672 C113.14160679 323.54559898 112.04320524 324.63236939 110.94378471 325.71810722 C105.75761521 330.84021721 100.68092837 335.99087114 95.93910122 341.53163338 C92.46111264 345.47178983 88.69403778 349.13586314 84.97118378 352.84268951 C84.0728331 353.74118622 83.17448242 354.63968292 82.248909 355.5654068 C79.80948537 358.00511484 77.36701275 360.44174881 74.92393994 362.8778019 C72.36235354 365.43309498 69.80363908 367.99126072 67.24460602 370.54911041 C62.40902561 375.38159502 57.57090404 380.21152702 52.73184198 385.04052496 C47.21830601 390.54284516 41.70764287 396.04803877 36.19720757 401.55346394 C24.87170133 412.86854547 13.54263053 424.18005105 2.21117401 435.48917389 C-3.49461788 434.12568753 -6.43280795 431.41800145 -10.42090607 427.37467194 C-11.05415802 426.74842926 -11.68740997 426.12218658 -12.33985138 425.47696686 C-14.42283854 423.41153407 -16.4909115 421.33187335 -18.55835724 419.25089264 C-20.00411777 417.80782738 -21.45047159 416.36535629 -22.89739227 414.92345428 C-25.92398733 411.90275057 -28.94324368 408.87494482 -31.95752716 405.84195709 C-35.8222358 401.9544394 -39.70465144 398.08518207 -43.5927248 394.22104931 C-46.58106441 391.24715964 -49.55981635 388.26381364 -52.53574944 385.2775135 C-53.96376355 383.84683097 -55.39475527 382.41911412 -56.82875252 380.99442863 C-58.83024621 379.00308877 -60.81847644 376.99938391 -62.80371857 374.99185944 C-63.39849503 374.4051799 -63.99327148 373.81850037 -64.60607147 373.21404266 C-67.69984907 370.05559845 -69.47490384 367.93971853 -69.78882599 363.48917389 C-68.82530117 361.7249527 -68.82530117 361.7249527 -67.18700409 360.01944733 C-66.53227552 359.32750275 -65.87754696 358.63555817 -65.20297813 357.92264557 C-64.40630793 357.11959991 -63.60963772 356.31655426 -62.78882599 355.48917389 C-61.84244581 354.52041246 -60.89636448 353.55135902 -59.95052528 352.5820694 C-56.46542113 349.03044777 -52.94162448 345.51810875 -49.41797638 342.00479889 C-48.06699236 340.65409733 -46.71622927 339.30317477 -45.36566925 337.95204926 C-41.71760885 334.30370316 -38.06648399 330.65843814 -34.41478276 327.01373672 C-30.59198228 323.19720777 -26.77203294 319.37782724 -22.9517746 315.55875397 C-15.72561415 308.33569565 -8.49690943 301.11518922 -1.26727718 293.89560604 C6.96687453 285.67265023 15.19817069 277.44683851 23.42923343 269.22079086 C40.35338133 252.30708204 57.2810952 235.39694591 74.21117401 218.48917389 C72.59315083 214.41825518 69.68711192 211.70319349 66.62448883 208.68889618 C66.04770466 208.11322543 65.4709205 207.53755467 64.87665802 206.94443935 C62.9413432 205.01520022 60.99898489 203.09321076 59.056633 201.17105865 C57.66835833 199.78989583 56.28055226 198.40826185 54.89318085 197.02619171 C51.90406881 194.05018516 48.91197892 191.07721629 45.91765404 188.10645485 C41.18522803 183.41057987 36.46147337 178.70604815 31.73926544 173.99990082 C18.30967195 160.61863849 4.86838879 147.24915455 -8.5815506 133.88834381 C-16.00918593 126.50977637 -23.4296402 119.12406257 -30.84243149 111.7305817 C-35.53728585 107.04882892 -40.24102171 102.37624313 -44.95146763 97.7101804 C-47.87723102 94.80784417 -50.79462873 91.89721216 -53.70970154 88.9841423 C-55.06515339 87.63299265 -56.42405772 86.28529649 -57.78660393 84.94130135 C-59.64344758 83.10877055 -61.48762128 81.26436217 -63.32912445 79.41643524 C-63.87347108 78.88510422 -64.41781771 78.35377319 -64.97865969 77.80634123 C-67.89247938 74.85265232 -69.60196681 72.71299774 -69.78882599 68.48917389 C-68.83327484 66.73978424 -68.83327484 66.73978424 -67.2011795 65.04581451 C-66.22110428 64.01001251 -66.22110428 64.01001251 -65.22122955 62.95328522 C-64.41853638 62.14012848 -63.6158432 61.32697174 -62.78882599 60.48917389 C-61.81549202 59.48175604 -60.84304788 58.473478 -59.871315 57.46451569 C-56.33713231 53.811667 -52.7670546 50.1949018 -49.19116974 46.58292389 C-48.54312441 45.92830673 -47.89507908 45.27368958 -47.22739601 44.59923553 C-43.80689571 41.14635856 -40.38247545 37.69741583 -36.95557404 34.25089264 C-34.12603879 31.40344428 -31.30529624 28.54769057 -28.49170685 25.68448639 C-25.0798414 22.21256052 -21.65359995 18.75546719 -18.2164402 15.30858612 C-16.91275869 13.99634183 -15.61422105 12.67896622 -14.32100487 11.35640717 C-12.5166704 9.51330109 -10.69445162 7.68988499 -8.86670685 5.87003326 C-8.33823151 5.32155731 -7.80975616 4.77308136 -7.26526642 4.20798492 C-4.91347731 1.90151806 -3.27927218 0.57520058 0 0 Z M-8.40361786 17.97954559 C-8.9143132 18.49383621 -9.42500854 19.00812683 -9.9511795 19.53800201 C-10.75606812 20.34267159 -10.75606812 20.34267159 -11.5772171 21.16359711 C-13.35976769 22.94684735 -15.13874492 24.73361944 -16.91773224 26.52042389 C-18.14919908 27.75375473 -19.38088612 28.98686575 -20.61278534 30.21976471 C-23.86186645 33.47267248 -27.10793403 36.7285716 -30.35340118 39.98508453 C-33.66275748 43.30465178 -36.97493003 46.62140634 -40.28687286 49.93839264 C-46.79029684 56.45255655 -53.29054345 62.96988135 -59.78882599 69.48917389 C-54.41988449 76.00807266 -48.49113445 81.93274978 -42.51929474 87.89151764 C-41.43152774 88.97995925 -40.34390914 90.06854918 -39.25643158 91.15727997 C-36.99126114 93.42391624 -34.72431278 95.68875473 -32.45606232 97.95230865 C-29.5427375 100.85989576 -26.63398028 103.77200476 -23.72650433 106.68543911 C-21.48848637 108.92705804 -19.24810787 111.16630545 -17.00699043 113.40482521 C-15.93250101 114.47864619 -14.85875769 115.55321425 -13.78576469 116.6285305 C-12.29463574 118.12218276 -10.80036776 119.61261985 -9.30518341 121.102211 C-8.45502151 121.9515773 -7.60485962 122.8009436 -6.72893524 123.67604828 C-5.10963332 125.60297264 -5.10963332 125.60297264 -3.78882599 125.48917389 C-3.78882599 88.85917389 -3.78882599 52.22917389 -3.78882599 14.48917389 C-5.83633648 14.48917389 -7.03675939 16.6167353 -8.40361786 17.97954559 Z M4.21117401 14.48917389 C4.21117401 53.09917389 4.21117401 91.70917389 4.21117401 131.48917389 C42.49117401 131.48917389 80.77117401 131.48917389 120.21117401 131.48917389 C106.8657038 115.91945864 92.34509778 101.46952744 77.84239697 86.98607135 C75.28028376 84.42653847 72.72066577 81.86451191 70.16062164 79.30290985 C65.88393218 75.02442017 61.60518041 70.74800154 57.32518768 66.47281647 C52.37648641 61.52960976 47.4314728 56.58273583 42.48824936 51.63405174 C38.21886906 47.36014488 33.9475581 43.08817486 29.67460197 38.81784302 C27.13239133 36.27719055 24.59085972 33.73586873 22.0510807 31.19278526 C19.23953684 28.37783566 16.42394746 25.56695502 13.60790253 22.75650787 C12.34657249 21.49214149 12.34657249 21.49214149 11.05976105 20.20223236 C10.29899261 19.44428375 9.53822418 18.68633514 8.75440216 17.9054184 C8.09029107 17.24168433 7.42617998 16.57795027 6.74194431 15.89410305 C5.43467707 14.37647803 5.43467707 14.37647803 4.21117401 14.48917389 Z M10.21117401 139.48917389 C14.22329126 144.30000391 18.41713124 148.83589886 22.85912323 153.2506485 C23.49398148 153.88565277 24.12883972 154.52065704 24.7829361 155.17490387 C26.8582135 157.24949093 28.93699802 159.32052461 31.01586151 161.39151764 C32.46482106 162.83860988 33.91355833 164.28592473 35.36208344 165.73345184 C39.15740711 169.52497496 42.95572532 173.3134841 46.75469208 177.10135651 C50.6378456 180.97424279 54.51813596 184.84999541 58.39867401 188.72550201 C66.00005384 196.31618797 73.60460285 203.90369038 81.21117401 211.48917389 C85.608926 207.80033013 89.81383913 204.00976377 93.87108612 199.94278717 C94.38904755 199.42497177 94.90700897 198.90715637 95.4406662 198.3736496 C97.12566923 196.68795855 98.80711771 194.99877057 100.48851776 193.30948639 C101.66656659 192.12956942 102.84483867 190.94987531 104.02332306 189.77039337 C107.10464543 186.68527698 110.18295117 183.597168 113.26061249 180.50839996 C116.40961435 177.34911656 119.56149572 174.19270872 122.71312714 171.03604889 C128.88194511 164.85654862 135.0475753 158.67387999 141.21117401 152.48917389 C138.60946114 147.28574815 134.99742005 142.80033109 130.21117401 139.48917389 C126.2120264 138.40229166 122.41098824 138.47248984 118.28734589 138.58097076 C117.11574921 138.57980255 115.94415253 138.57863434 114.73705292 138.57743073 C110.88345008 138.58298256 107.03298283 138.64510784 103.17992401 138.70792389 C100.50087497 138.72285286 97.82199719 138.73463024 95.14293671 138.74222565 C88.824459 138.7670223 82.50709783 138.83257502 76.18911028 138.91302156 C68.99212209 139.00265739 61.7950786 139.04648049 54.59767056 139.08658504 C39.80160248 139.17004972 25.00640777 139.31062722 10.21117401 139.48917389 Z M142.59638214 160.96843719 C142.0856868 161.48115677 141.57499146 161.99387634 141.0488205 162.52213287 C140.24393188 163.32439301 140.24393188 163.32439301 139.4227829 164.14286041 C137.64007726 165.92114511 135.86107733 167.70308632 134.08226776 169.48526764 C132.85073006 170.71613238 131.61904388 171.94684858 130.38721466 173.17742157 C127.80224429 175.76091464 125.21909915 178.3462157 122.6371994 180.9327774 C119.31913348 184.25654063 115.99659969 187.57579558 112.67269039 190.89371395 C110.12738365 193.43541595 107.58445277 195.97948415 105.04224586 198.52428627 C103.81770674 199.74949491 102.59241767 200.97395448 101.36638451 202.19766808 C99.65654275 203.90498473 97.94991535 205.61544929 96.244133 207.32682037 C95.73141342 207.83751572 95.21869385 208.34821106 94.69043732 208.87438202 C92.27097449 210.84297595 92.27097449 210.84297595 91.21117401 213.48917389 C127.84117401 213.48917389 164.47117401 213.48917389 202.21117401 213.48917389 C198.53142943 209.19613855 195.01298001 205.16527871 191.04784393 201.19644928 C190.57064911 200.71750214 190.09345428 200.23855499 189.60179901 199.7450943 C188.05088966 198.18984412 186.49642437 196.63820846 184.94164276 195.08683014 C183.85387576 193.99838853 182.76625716 192.9097986 181.6787796 191.82106781 C179.41360916 189.55443154 177.1466608 187.28959305 174.87841034 185.02603912 C171.96508552 182.11845202 169.0563283 179.20634302 166.14885235 176.29290867 C163.9108344 174.05128973 161.6704559 171.81204233 159.42933846 169.57352257 C158.35484903 168.49970159 157.28110571 167.42513353 156.20811272 166.34981728 C154.71698376 164.85616501 153.22271578 163.36572793 151.72753143 161.87613678 C150.45228859 160.60208733 150.45228859 160.60208733 149.15128326 159.3022995 C145.87934074 156.24451151 145.46401205 158.11822871 142.59638214 160.96843719 Z M36.27367401 253.48917389 C35.44250816 254.31948372 34.61134232 255.14979355 33.75498962 256.00526428 C6.09096012 284.28980426 -1.37203594 314.87422943 -1.06225681 353.08529472 C-0.74316409 375.65158672 1.24771287 398.12415372 4.21117401 420.48917389 C8.75924331 416.6806639 13.09796687 412.7474676 17.28282928 408.54450226 C17.85148508 407.97740646 18.42014087 407.41031066 19.00602865 406.82603014 C20.89123425 404.94478019 22.77288446 403.0600159 24.65453339 401.17520905 C26.01344233 399.81765657 27.37256361 398.46031661 28.73188019 397.1031723 C32.40977653 393.42982148 36.08451856 389.75333044 39.75855446 386.07611895 C43.61215093 382.21998346 47.46819496 378.36629672 51.32384491 374.51221466 C57.79834175 368.03953523 64.27073174 361.56475467 70.74193573 355.08878326 C78.21145048 347.61382903 85.68455764 340.14248085 93.15954542 332.67299998 C99.58876572 326.24832574 106.01602507 319.82169463 112.44166613 313.3934406 C116.27434077 309.55921111 120.1076779 305.7256505 123.94278717 301.89385605 C127.55001831 298.28952524 131.15477207 294.68273456 134.75767326 291.0740757 C136.07616725 289.75426559 137.39550156 288.43529431 138.71576118 287.11725044 C147.51085651 278.33957406 147.51085651 278.33957406 155.81999397 269.10508347 C157.81927519 266.78284078 159.96339687 264.62477558 162.13671112 262.46598053 C163.03711624 261.56887863 163.93752136 260.67177673 164.86521149 259.74748993 C165.33377501 259.28304537 165.80233852 258.81860081 166.28510094 258.34008217 C167.7709337 256.86719667 169.25345811 255.39104842 170.73523712 253.91408539 C173.87021365 250.79042488 177.00916567 247.67077866 180.14867401 244.55167389 C183.81345005 240.91051289 187.47657156 237.26771755 191.13555336 233.62073326 C192.59826613 232.16451406 194.06394742 230.7113278 195.52976227 229.25823212 C196.40810226 228.38319534 197.28644226 227.50815857 198.19139862 226.60660553 C198.96970535 225.83353561 199.74801208 225.0604657 200.54990387 224.26396942 C202.32506927 222.77266061 202.32506927 222.77266061 202.21117401 221.48917389 C142.49899255 213.44373339 82.20948898 207.60066823 36.27367401 253.48917389 Z M-8.40361786 312.97954559 C-8.9143132 313.49383621 -9.42500854 314.00812683 -9.9511795 314.53800201 C-10.75606812 315.34267159 -10.75606812 315.34267159 -11.5772171 316.16359711 C-13.35976769 317.94684735 -15.13874492 319.73361944 -16.91773224 321.52042389 C-18.14919908 322.75375473 -19.38088612 323.98686575 -20.61278534 325.21976471 C-23.86186645 328.47267248 -27.10793403 331.7285716 -30.35340118 334.98508453 C-33.66275748 338.30465178 -36.97493003 341.62140634 -40.28687286 344.93839264 C-46.79029684 351.45255655 -53.29054345 357.96988135 -59.78882599 364.48917389 C-54.41988449 371.00807266 -48.49113445 376.93274978 -42.51929474 382.89151764 C-41.43152774 383.97995925 -40.34390914 385.06854918 -39.25643158 386.15727997 C-36.99126114 388.42391624 -34.72431278 390.68875473 -32.45606232 392.95230865 C-29.5427375 395.85989576 -26.63398028 398.77200476 -23.72650433 401.68543911 C-21.48848637 403.92705804 -19.24810787 406.16630545 -17.00699043 408.40482521 C-15.93250101 409.47864619 -14.85875769 410.55321425 -13.78576469 411.6285305 C-12.29463574 413.12218276 -10.80036776 414.61261985 -9.30518341 416.102211 C-8.45502151 416.9515773 -7.60485962 417.8009436 -6.72893524 418.67604828 C-5.10963332 420.60297264 -5.10963332 420.60297264 -3.78882599 420.48917389 C-3.78882599 383.85917389 -3.78882599 347.22917389 -3.78882599 309.48917389 C-5.83633648 309.48917389 -7.03675939 311.6167353 -8.40361786 312.97954559 Z " fill="#FFFFFF" transform="translate(748.7888259887695,452.51082611083984)"/>
<path d="M0 0 C5.45466093 1.040982 8.36499849 4.82412441 12.16665459 8.69494915 C13.04087222 9.56121797 13.91508986 10.4274868 14.81579894 11.32000619 C17.23998783 13.728258 19.64998375 16.14928746 22.0549444 18.57665265 C24.6514732 21.19084864 27.26521945 23.78772963 29.87684441 26.38682842 C34.990446 31.48143996 40.08779841 36.59201823 45.17974947 41.70825937 C51.10774221 47.66347594 57.05094217 53.60341779 62.99467465 59.54291788 C73.59791696 70.13977838 84.18622664 80.75143717 94.76667595 91.37105083 C105.03773122 101.68011531 115.32062929 111.97717954 125.61628532 122.26167583 C136.82257575 133.4558554 148.02260575 144.65622613 159.21146697 155.86782914 C160.40415642 157.06293323 161.59684721 158.25803598 162.78953934 159.4531374 C163.37638419 160.04118932 163.96322903 160.62924125 164.56785706 161.23511293 C168.70738252 165.38240278 172.85117514 169.52539973 176.99648285 173.66690922 C182.04677502 178.71296066 187.08966741 183.76627385 192.12329624 188.82894971 C194.69260614 191.41276425 197.2650061 193.99328752 199.84613419 196.56530094 C202.64145926 199.35099453 205.42114684 202.15195847 208.19936943 204.95471478 C209.02113586 205.76892255 209.84290228 206.58313033 210.68957072 207.42201108 C211.42982484 208.17392958 212.17007895 208.92584808 212.93276501 209.70055199 C213.57617629 210.34569683 214.21958758 210.99084167 214.88249618 211.65553635 C216.63942333 214.00917748 217.09948581 215.73363856 217.3655529 218.64229107 C216.27033806 220.53999615 216.27033806 220.53999615 214.5296154 222.34932232 C213.87767204 223.03848736 213.22572868 223.7276524 212.55402946 224.43770123 C211.8318322 225.16521587 211.10963493 225.89273052 210.3655529 226.64229107 C209.27065544 227.76643414 209.27065544 227.76643414 208.15363884 228.91328716 C205.70199429 231.40556955 203.22453989 233.86975565 200.7405529 236.32979107 C199.83482536 237.23173199 198.92909782 238.1336729 197.995924 239.06294537 C194.63633984 242.40834551 191.27224028 245.74917499 187.90778923 249.08967876 C184.5992094 252.37520907 181.29452809 255.66462897 177.9905529 258.95479107 C177.12994255 259.80710308 176.2693322 260.65941509 175.38264275 261.53755474 C174.15601921 262.75922344 174.15601921 262.75922344 172.9046154 264.00557232 C172.19514763 264.70980328 171.48567986 265.41403423 170.75471306 266.13960552 C168.81504645 268.171439 166.97753737 270.23415755 165.14610767 272.36131573 C161.73215445 276.27171865 158.16594917 279.98005875 154.4875164 283.64058208 C153.8322506 284.29670231 153.1769848 284.95282253 152.50186247 285.62882519 C150.32866151 287.80365945 148.15193147 289.97492515 145.97517204 292.14619732 C144.40744206 293.71364494 142.83993282 295.28131337 141.27262688 296.84918499 C137.0336769 301.08842103 132.79165812 305.32457402 128.54906964 309.56016827 C124.10967339 313.99329911 119.67312244 318.42927561 115.23626518 322.86494732 C107.79423727 330.30422362 100.35046755 337.74175371 92.90534782 345.1779356 C85.24010719 352.83398376 77.57592757 360.49109153 69.91316032 368.14961529 C69.20352048 368.85886105 69.20352048 368.85886105 68.47954447 369.58243501 C66.10595434 371.95472001 63.73238492 374.32702574 61.3588258 376.69934177 C41.6975654 396.35015905 22.03273883 415.99740438 2.3655529 435.64229107 C-1.28573482 434.55666323 -4.09984643 433.67615421 -6.81689644 430.9677763 C-7.37061928 430.42533276 -7.92434212 429.88288921 -8.49484444 429.32400799 C-9.07949974 428.73125576 -9.66415504 428.13850353 -10.26652718 427.52778912 C-10.89977913 426.90154644 -11.53303108 426.27530376 -12.18547249 425.63008404 C-14.26845964 423.56465125 -16.33653261 421.48499053 -18.40397835 419.40400982 C-19.84973888 417.96094456 -21.2960927 416.51847347 -22.74301338 415.07657146 C-25.76960843 412.05586775 -28.78886478 409.028062 -31.80314827 405.99507427 C-35.66785691 402.10755658 -39.55027255 398.23829925 -43.43834591 394.37416649 C-46.42668552 391.40027682 -49.40543745 388.41693082 -52.38137054 385.43063068 C-53.80938466 383.99994815 -55.24037638 382.5722313 -56.67437363 381.14754581 C-58.67586732 379.15620595 -60.66409755 377.15250109 -62.64933968 375.14497662 C-63.24411613 374.55829708 -63.83889259 373.97161755 -64.45169258 373.36715984 C-67.54547018 370.20871563 -69.32052495 368.09283571 -69.6344471 363.64229107 C-68.67092228 361.87806988 -68.67092228 361.87806988 -67.0326252 360.17256451 C-66.37789663 359.48061993 -65.72316807 358.78867535 -65.04859924 358.07576275 C-64.25192904 357.27271709 -63.45525883 356.46967144 -62.6344471 355.64229107 C-61.68806691 354.67352964 -60.74198559 353.7044762 -59.79614639 352.73518658 C-56.31104224 349.18356495 -52.78724559 345.67122593 -49.26359749 342.15791607 C-47.91261347 340.80721451 -46.56185037 339.45629195 -45.21129036 338.10516644 C-41.56322996 334.45682034 -37.9121051 330.81155532 -34.26040387 327.1668539 C-30.43760338 323.35032495 -26.61765405 319.53094442 -22.79739571 315.71187115 C-15.57123526 308.48881283 -8.34253054 301.2683064 -1.11289829 294.04872322 C7.12125342 285.82576741 15.35254958 277.59995569 23.58361232 269.37390804 C40.50776022 252.46019922 57.43547409 235.55006309 74.3655529 218.64229107 C72.49545015 214.5866653 69.80138502 211.81693972 66.64997673 208.71553326 C66.06596092 208.13283169 65.48194511 207.55013012 64.88023186 206.94977093 C62.94890418 205.02493181 61.01069891 203.10716899 59.07258415 201.18916607 C57.7240677 199.84692442 56.37606803 198.50416338 55.02856255 197.16090679 C51.47624608 193.62189713 47.91841646 190.08848663 44.35896111 186.55665874 C38.6787601 180.91953773 33.00513341 175.27582176 27.33491898 169.62865734 C25.36160464 167.66548599 23.38486584 165.70581326 21.40774345 163.74647808 C20.18107617 162.52664842 18.95452313 161.30670388 17.72810173 160.08662701 C17.1860157 159.55127834 16.64392967 159.01592968 16.08541679 158.46435833 C13.25043216 155.63763695 10.5525085 152.74149245 7.93539238 149.71113873 C4.42348403 145.65566306 0.70177959 141.86425666 -3.11442757 138.09639263 C-3.82585411 137.38963894 -4.53728065 136.68288525 -5.27026558 135.95471478 C-6.80020481 134.43520106 -8.33124583 132.91679603 -9.8632946 131.39940929 C-12.2868214 128.99805113 -14.70623487 126.59261968 -17.12446785 124.18593121 C-23.99497694 117.34889606 -30.86973537 110.51617769 -37.75456429 103.6935606 C-41.97706414 99.50863851 -46.19227515 95.31649382 -50.40285301 91.11957836 C-52.00691109 89.52358241 -53.61374348 87.93036983 -55.22337151 86.33999157 C-57.46607941 84.12366752 -59.69942421 81.8983019 -61.93083382 79.67061138 C-62.59884514 79.01495693 -63.26685646 78.35930248 -63.95511055 77.68377972 C-64.56060234 77.07560909 -65.16609413 76.46743847 -65.78993416 75.84083843 C-66.31824774 75.31658905 -66.84656132 74.79233967 -67.3908844 74.25220394 C-68.83549297 72.38201763 -69.31291545 70.97367497 -69.6344471 68.64229107 C-68.67889595 66.99055767 -68.67889595 66.99055767 -67.04680061 65.26143169 C-66.39341713 64.56187359 -65.74003365 63.86231548 -65.06685066 63.14155865 C-64.26415749 62.31680035 -63.46146431 61.49204205 -62.6344471 60.64229107 C-62.17074085 60.16089672 -61.70703461 59.67950237 -61.22927666 59.18352032 C-57.19931717 55.00046443 -53.12329132 50.86378847 -49.03679085 46.73604107 C-48.38874552 46.08142391 -47.74070019 45.42680676 -47.07301712 44.75235271 C-43.65251682 41.29947574 -40.22809656 37.85053301 -36.80119514 34.40400982 C-33.9716599 31.55656146 -31.15091734 28.70080775 -28.33732796 25.83760357 C-24.92546251 22.3656777 -21.49922106 18.90858436 -18.06206131 15.4617033 C-16.7583798 14.14945901 -15.45984216 12.8320834 -14.16662598 11.50952435 C-12.36229151 9.66641827 -10.54007273 7.84300217 -8.71232796 6.02315044 C-8.18385262 5.47467449 -7.65537727 4.92619854 -7.11088753 4.3611021 C-4.85603284 2.1497016 -3.09152325 0.75372847 0 0 Z M-8.24923897 18.13266277 C-8.75993431 18.64695339 -9.27062965 19.16124401 -9.79680061 19.69111919 C-10.60168922 20.49578876 -10.60168922 20.49578876 -11.42283821 21.31671429 C-13.2053888 23.09996453 -14.98436603 24.88673662 -16.76335335 26.67354107 C-17.99482019 27.90687191 -19.22650722 29.13998293 -20.45840645 30.37288189 C-23.70748756 33.62578966 -26.95355514 36.88168878 -30.19902229 40.13820171 C-33.50837859 43.45776896 -36.82055114 46.77452352 -40.13249397 50.09150982 C-46.63591795 56.60567373 -53.13616456 63.12299853 -59.6344471 69.64229107 C-54.2655056 76.16118984 -48.33675556 82.08586696 -42.36491585 88.04463482 C-41.27714885 89.13307643 -40.18953025 90.22166636 -39.10205269 91.31039715 C-36.83688225 93.57703342 -34.56993388 95.84187191 -32.30168343 98.10542583 C-29.38835861 101.01301294 -26.47960139 103.92512194 -23.57212543 106.83855629 C-21.33410748 109.08017522 -19.09372898 111.31942263 -16.85261154 113.55794239 C-15.77812212 114.63176337 -14.70437879 115.70633143 -13.6313858 116.78164768 C-12.14025685 118.27529994 -10.64598887 119.76573703 -9.15080452 121.25532818 C-8.30064262 122.10469448 -7.45048073 122.95406078 -6.57455635 123.82916546 C-4.95525443 125.75608981 -4.95525443 125.75608981 -3.6344471 125.64229107 C-3.6344471 89.01229107 -3.6344471 52.38229107 -3.6344471 14.64229107 C-5.68195759 14.64229107 -6.8823805 16.76985248 -8.24923897 18.13266277 Z M4.3655529 14.64229107 C-6.18768219 92.07102058 -6.18768219 92.07102058 19.8317852 163.07513714 C24.9187762 169.68507858 30.47115865 175.74789682 36.3655529 181.64229107 C37.19586273 182.4726009 38.02617256 183.30291073 38.8816433 184.15838146 C67.1606282 211.78611097 97.78109956 219.21805709 135.96167374 218.91411686 C158.52800709 218.59832107 181.00062324 216.60573949 203.3655529 213.64229107 C198.93196912 208.33598112 194.25710637 203.39187905 189.36169243 198.51144695 C188.57322939 197.72142393 187.78476636 196.9314009 186.9724105 196.11743778 C184.34239825 193.48345198 181.70884428 190.85303699 179.0752697 188.22261333 C177.184198 186.33018605 175.29332187 184.43756517 173.40267754 182.54471111 C168.80916061 177.94675858 164.21295788 173.35150003 159.61577096 168.75721718 C155.88172334 165.02543063 152.14865619 161.29266592 148.41628265 157.55920506 C147.88451496 157.02728413 147.35274726 156.4953632 146.80486539 155.94732345 C145.72457409 154.86671243 144.64428504 153.78609916 143.5639982 152.70548367 C133.44761542 142.58625301 123.32817591 132.47008362 113.2076805 122.35496633 C104.516946 113.66870699 95.82884753 104.97981829 87.14265251 96.28901958 C77.05369107 86.1947135 66.96311848 76.10202254 56.86994678 66.01192611 C55.79521053 64.93750842 54.72047637 63.86308863 53.64574432 62.78866673 C53.11694579 62.26002247 52.58814726 61.73137821 52.04332453 61.18671443 C48.3097951 57.45404991 44.57743033 53.72022323 40.84550858 49.98595142 C36.30474094 45.44238716 31.76221217 40.90059268 27.21737518 36.36109877 C24.89701622 34.0433775 22.57775005 31.72458095 20.26008797 29.40416241 C17.75384995 26.89521721 15.24459338 24.389332 12.73449516 21.88424969 C11.99443865 21.14196245 11.25438214 20.39967522 10.49189967 19.63489443 C9.82479686 18.97039937 9.15769406 18.30590431 8.47037601 17.62127304 C7.89075774 17.04181712 7.31113947 16.4623612 6.71395701 15.86534601 C5.54551274 14.5303177 5.54551274 14.5303177 4.3655529 14.64229107 Z M92.3655529 221.64229107 C96.051198 225.94221034 99.56759484 229.96816191 103.54475212 233.93501568 C104.02355324 234.41396282 104.50235435 234.89290997 104.9956646 235.38637066 C106.55149366 236.94151273 108.11081507 238.49309971 109.6702404 240.04463482 C110.76047655 241.13300246 111.85048959 242.22159364 112.94029045 243.31039715 C115.78867084 246.15498642 118.64004294 248.99655788 121.49207878 251.8374815 C124.4100729 254.74518772 127.32518594 257.65577931 130.2405529 260.56611919 C135.94609274 266.26098187 141.65480084 271.95265519 147.3655529 277.64229107 C153.88445167 272.27334957 159.80912879 266.34459953 165.76789665 260.37275982 C166.85633826 259.28499282 167.94492819 258.19737422 169.03365898 257.10989666 C171.30029525 254.84472622 173.56513374 252.57777786 175.82868767 250.3095274 C178.73627477 247.39620258 181.64838377 244.48744536 184.56181812 241.57996941 C186.80343706 239.34195145 189.04268446 237.10157295 191.28120422 234.86045551 C192.3550252 233.78596609 193.42959326 232.71222277 194.50490952 231.63922977 C195.99856178 230.14810082 197.48899886 228.65383284 198.97859001 227.15864849 C199.82795631 226.3084866 200.67732262 225.4583247 201.55242729 224.58240032 C203.47935165 222.9630984 203.47935165 222.9630984 203.3655529 221.64229107 C166.7355529 221.64229107 130.1055529 221.64229107 92.3655529 221.64229107 Z M76.73538017 228.13693523 C76.07507301 228.79926662 75.41476585 229.46159801 74.73444939 230.14400005 C74.04179985 230.83489727 73.34915031 231.52579449 72.6355114 232.23762798 C70.33335711 234.5353601 68.03490441 236.83675574 65.73664665 239.13838482 C64.14638502 240.72797352 62.55597491 242.3174137 60.96542168 243.90671062 C57.62719673 247.2434581 54.29079552 250.58201594 50.95564079 253.92183208 C46.6690299 258.21414028 42.37794662 262.50194482 38.08549213 266.78840828 C34.79901572 270.0712804 31.51491353 273.35651925 28.23153687 276.64249134 C26.64973869 278.22495915 25.06719033 279.80667745 23.48389816 281.38765049 C21.2759312 283.59309309 19.07116986 285.80168982 16.86726189 288.01118755 C16.2049305 288.67149471 15.54259911 289.33180187 14.86019707 290.01211834 C11.82172723 292.44973219 11.82172723 292.44973219 10.3655529 295.64229107 C25.82113774 295.899916 41.27656078 296.09354965 56.7337904 296.21222496 C63.91198879 296.26880846 71.08884879 296.34586282 78.26618767 296.47212505 C84.52634295 296.58219934 90.78552865 296.65283114 97.04662484 296.67726451 C100.35879805 296.69153721 103.66757192 296.73063422 106.97901154 296.80532169 C122.58727942 297.87447474 122.58727942 297.87447474 136.14780521 291.63158417 C138.14584701 289.45004019 139.82570338 287.16513739 141.3655529 284.64229107 C139.75679014 280.63219716 136.93755739 277.93904972 133.92194939 274.95576763 C133.08999046 274.12096119 133.08999046 274.12096119 132.24122429 273.26928997 C130.41121165 271.43557979 128.57411144 269.60915641 126.73664665 267.78291607 C125.46358213 266.51104369 124.19088709 265.2388014 122.91854668 263.96620464 C120.25430664 261.30352753 117.58674301 258.6442414 114.91657829 255.98750591 C111.48576627 252.57372658 108.06161729 249.15335793 104.63969135 245.73067379 C102.01413111 243.10538472 99.3859786 240.48270418 96.75692749 237.86091137 C95.49277861 236.59995444 94.22924311 235.33838228 92.96632004 234.07619762 C91.2066395 232.31867265 89.44371384 230.56447289 87.67976189 228.81123638 C86.89037979 228.02117451 86.89037979 228.02117451 86.08505058 227.21515179 C81.3530857 222.5254001 81.39927511 223.49500391 76.73538017 228.13693523 Z M4.3655529 303.64229107 C4.3655529 342.25229107 4.3655529 380.86229107 4.3655529 420.64229107 C8.56205366 417.04529042 12.50781804 413.62519383 16.38335991 409.7514677 C17.06611751 409.07105009 17.06611751 409.07105009 17.76266819 408.37688667 C19.26343859 406.88005521 20.76066825 405.37973507 22.25788689 403.87935162 C23.34244314 402.79615245 24.42721157 401.71316568 25.51217461 400.63037395 C28.43961994 397.70746309 31.36392299 394.78142769 34.28751063 391.85465884 C37.35027753 388.78935158 40.41549318 385.72649454 43.48031425 382.66324139 C48.61890835 377.52646244 53.75539912 372.38758736 58.89069939 367.24751568 C64.83459637 361.29815994 70.78211072 355.35243867 76.73148292 349.40855855 C81.84170041 344.30287014 86.94997784 339.19524685 92.05662018 334.08598262 C95.10603071 331.03501042 98.15611929 327.98472435 101.20795822 324.93618107 C104.07071272 322.07630289 106.93103353 319.21401326 109.78944778 316.34979725 C110.84157893 315.29633795 111.89457287 314.24373959 112.94846535 313.19204235 C114.38015483 311.76306177 115.80849694 310.33072974 117.23663139 308.89819622 C118.03871749 308.0957331 118.84080359 307.29326998 119.66719532 306.46648979 C121.47912143 304.93570966 121.47912143 304.93570966 121.3655529 303.64229107 C82.7555529 303.64229107 44.1455529 303.64229107 4.3655529 303.64229107 Z M-8.24923897 313.13266277 C-8.75993431 313.64695339 -9.27062965 314.16124401 -9.79680061 314.69111919 C-10.60168922 315.49578876 -10.60168922 315.49578876 -11.42283821 316.31671429 C-13.2053888 318.09996453 -14.98436603 319.88673662 -16.76335335 321.67354107 C-17.99482019 322.90687191 -19.22650722 324.13998293 -20.45840645 325.37288189 C-23.70748756 328.62578966 -26.95355514 331.88168878 -30.19902229 335.13820171 C-33.50837859 338.45776896 -36.82055114 341.77452352 -40.13249397 345.09150982 C-46.63591795 351.60567373 -53.13616456 358.12299853 -59.6344471 364.64229107 C-54.2655056 371.16118984 -48.33675556 377.08586696 -42.36491585 383.04463482 C-41.27714885 384.13307643 -40.18953025 385.22166636 -39.10205269 386.31039715 C-36.83688225 388.57703342 -34.56993388 390.84187191 -32.30168343 393.10542583 C-29.38835861 396.01301294 -26.47960139 398.92512194 -23.57212543 401.83855629 C-21.33410748 404.08017522 -19.09372898 406.31942263 -16.85261154 408.55794239 C-15.77812212 409.63176337 -14.70437879 410.70633143 -13.6313858 411.78164768 C-12.14025685 413.27529994 -10.64598887 414.76573703 -9.15080452 416.25532818 C-8.30064262 417.10469448 -7.45048073 417.95406078 -6.57455635 418.82916546 C-4.95525443 420.75608981 -4.95525443 420.75608981 -3.6344471 420.64229107 C-3.6344471 384.01229107 -3.6344471 347.38229107 -3.6344471 309.64229107 C-5.68195759 309.64229107 -6.8823805 311.76985248 -8.24923897 313.13266277 Z " fill="#FFFFFF" transform="translate(966.6344470977783,452.35770893096924)"/>
<path d="M0 0 C8.23803293 7.71553612 11.4409786 18.79529501 12.0078125 29.85546875 C11.44413005 39.53430882 7.91055965 47.64310499 1.26953125 54.68359375 C-8.09926387 62.60173672 -18.24531599 64.64847089 -30.15234375 63.73046875 C-39.81142742 61.83452129 -46.80673111 56.25939375 -52.81640625 48.61328125 C-58.62779106 39.87921168 -60.22520277 28.8262281 -58.52734375 18.54296875 C-57.30428764 13.40282754 -55.0081564 9.1416009 -52.15234375 4.73046875 C-51.31703125 3.40015625 -51.31703125 3.40015625 -50.46484375 2.04296875 C-36.16438453 -12.25749047 -15.38946786 -12.39112223 0 0 Z " fill="#292F33" transform="translate(854.15234375,710.26953125)"/>
<path d="M0 0 C6.7729162 5.52493164 10.66883576 12.19487428 12.78515625 20.66015625 C13.78628611 32.6737146 11.87069285 41.44875386 4.328125 51.17578125 C-2.15393162 58.19892948 -10.61482419 61.39729647 -19.96484375 62.66015625 C-30.1822852 62.99979419 -40.24675165 59.84090676 -48.18359375 53.3515625 C-55.76221918 46.1551923 -59.04904564 38.56830527 -59.33984375 28.16015625 C-59.04318223 17.9549998 -55.95721483 11.12344212 -48.96484375 3.66015625 C-45.52876918 0.64645629 -42.05384985 -1.4984874 -37.96484375 -3.52734375 C-36.95421875 -4.03652344 -35.94359375 -4.54570313 -34.90234375 -5.0703125 C-23.07488268 -10.18191469 -10.18162041 -7.30850002 0 0 Z " fill="#292F33" transform="translate(1069.96484375,576.33984375)"/>
<path d="M0 0 C7.54005733 6.52460069 12.40464742 14.5466437 13.203125 24.54296875 C13.37996981 34.51996368 11.54009665 42.23935459 5 49.96484375 C-2.50810853 57.60493075 -12.84591681 61.91651997 -23.5625 62.5 C-33.33026866 61.94440215 -42.13287108 57.88075417 -49 51 C-55.45425238 43.51250107 -58.71822468 34.15319076 -58.27734375 24.2421875 C-57.07625641 14.5319884 -52.96206492 6.5671601 -45.7421875 -0.078125 C-31.19683321 -11.20929645 -14.71869216 -9.57968407 0 0 Z " fill="#2A3034" transform="translate(635,577)"/>
<path d="M0 0 C3.96 0 7.92 0 12 0 C15.58907751 15.16332154 19.13223186 30.33444116 22.4375 45.5625 C22.82542725 47.3254541 22.82542725 47.3254541 23.22119141 49.12402344 C23.57383057 50.76612793 23.57383057 50.76612793 23.93359375 52.44140625 C24.14040771 53.39732666 24.34722168 54.35324707 24.56030273 55.33813477 C24.9911352 57.94633378 25.08167684 60.36210731 25 63 C25.66 63 26.32 63 27 63 C27.04354614 62.41512314 27.08709229 61.83024628 27.13195801 61.22764587 C27.71769119 54.4052843 28.96721843 47.86592497 30.46875 41.19140625 C30.70911987 40.1028685 30.94948975 39.01433075 31.19714355 37.89280701 C31.70215337 35.61064174 32.20988271 33.32907671 32.72021484 31.0480957 C33.50288484 27.54960495 34.27755206 24.04941638 35.05078125 20.54882812 C35.54381184 18.325419 36.03728563 16.1021081 36.53125 13.87890625 C36.76356323 12.83207169 36.99587646 11.78523712 37.23522949 10.7066803 C37.45215454 9.73814621 37.66907959 8.76961212 37.89257812 7.77172852 C38.08275513 6.92030777 38.27293213 6.06888702 38.46887207 5.19166565 C39 3 39 3 40 0 C43.96 0 47.92 0 52 0 C52.70642236 8.43397185 53.1802969 16.80478244 53.31640625 25.265625 C53.33718735 26.38330261 53.35796844 27.50098022 53.37937927 28.65252686 C53.42226826 30.99862524 53.46335085 33.3447573 53.50268555 35.69091797 C53.56212397 39.22762563 53.62724802 42.76419266 53.69335938 46.30078125 C53.91530144 58.534975 54.06774002 70.7637868 54 83 C50.7 83 47.4 83 44 83 C43.20292365 79.81169459 42.85637134 77.53130987 42.79467773 74.32324219 C42.7647599 72.94226349 42.7647599 72.94226349 42.73423767 71.53338623 C42.71752518 70.54783752 42.70081268 69.56228882 42.68359375 68.546875 C42.66281265 67.53151672 42.64203156 66.51615845 42.62062073 65.47003174 C42.55529403 62.23008927 42.49631863 58.99006652 42.4375 55.75 C42.39429874 53.55207507 42.35068393 51.35415822 42.30664062 49.15625 C42.19962993 43.77091794 42.09783227 38.3855062 42 33 C41.86441177 33.58215775 41.72882355 34.16431549 41.58912659 34.76411438 C40.17952912 40.81506484 38.7679551 46.86555175 37.35522461 52.91577148 C36.82802275 55.1747673 36.30132754 57.43388142 35.77514648 59.69311523 C35.01939455 62.93764877 34.26183054 66.18175459 33.50390625 69.42578125 C33.26845596 70.43836502 33.03300568 71.45094879 32.79042053 72.49421692 C32.57026779 73.43496567 32.35011505 74.37571442 32.12329102 75.3449707 C31.93009781 76.17325882 31.7369046 77.00154694 31.53785706 77.85493469 C31.10250807 79.59118041 30.56604575 81.30186275 30 83 C27.36 83 24.72 83 22 83 C20.93152804 78.63046293 19.86560733 74.26031262 18.80175781 69.88964844 C18.44173222 68.41195049 18.08108397 66.93440407 17.71972656 65.45703125 C17.19159582 63.29730105 16.66593492 61.13698034 16.140625 58.9765625 C15.98627991 58.34763092 15.83193481 57.71869934 15.6729126 57.07070923 C13.65316291 48.74067317 11.8603469 40.37156105 10 32 C9.67 48.83 9.34 65.66 9 83 C5.37 83 1.74 83 -2 83 C-2.07422509 69.59235602 -1.87827534 56.19275411 -1.62768555 42.78759766 C-1.5623631 39.24257029 -1.50279546 35.69747408 -1.44335938 32.15234375 C-1.40139392 29.85676437 -1.35908795 27.56119118 -1.31640625 25.265625 C-1.29969376 24.22674133 -1.28298126 23.18785767 -1.26576233 22.11749268 C-1.11886683 14.71390018 -0.61809826 7.37947103 0 0 Z " fill="#FFFFFF" transform="translate(1008,938)"/>
<path d="M0 0 C30.21052632 0 30.21052632 0 37 6 C42.39823369 13.24499785 42.07842656 22.30574288 41 31 C39.67334639 35.80573503 37.42976579 39.46870526 33 42 C33.56536387 47.38416971 34.51021571 52.28510313 36.06640625 57.4921875 C36.26475571 58.16420197 36.46310516 58.83621643 36.66746521 59.52859497 C37.29327489 61.6458594 37.92733604 63.76052491 38.5625 65.875 C39.19995916 68.01124563 39.83560653 70.14799718 40.46824646 72.28567505 C41.03825018 74.20965027 41.61382981 76.13197094 42.18969727 78.05419922 C43 81 43 81 43 83 C39.04 83 35.08 83 31 83 C27.97326765 75.51432756 25.91924671 67.78123346 23.8125 60 C23.44110052 58.63922862 23.06935848 57.27855069 22.69726562 55.91796875 C21.79481236 52.61288016 20.89582815 49.30688925 20 46 C17.36 45.67 14.72 45.34 12 45 C12 57.54 12 70.08 12 83 C8.04 83 4.08 83 0 83 C0 55.61 0 28.22 0 0 Z M12 9 C12 17.91 12 26.82 12 36 C18.3081272 36 20.71409084 35.84625878 26 33 C28.37513738 30.59730883 28.96483453 29.29947366 29.36328125 25.90625 C29.34652344 24.7821875 29.32976563 23.658125 29.3125 22.5 C29.30669922 20.81390625 29.30669922 20.81390625 29.30078125 19.09375 C29.00961637 16.09891127 28.73830512 14.42810874 27 12 C22.09574976 9.24420876 22.09574976 9.24420876 12 9 Z " fill="#FFFFFF" transform="translate(623,938)"/>
<path d="M0 0 C1.1305481 0.01244751 1.1305481 0.01244751 2.28393555 0.02514648 C7.72023781 0.19081191 12.44954901 0.62414774 16.625 4.4375 C21.92007868 11.40470879 22.99808566 19.85652975 22.625 28.4375 C18.665 28.4375 14.705 28.4375 10.625 28.4375 C10.51542969 27.46167969 10.40585937 26.48585938 10.29296875 25.48046875 C10.13441406 24.20816406 9.97585938 22.93585937 9.8125 21.625 C9.66167969 20.36042969 9.51085937 19.09585938 9.35546875 17.79296875 C8.85703762 14.54130811 8.85703762 14.54130811 7.36328125 12.51171875 C5.0258515 11.06723969 3.35998539 11.03808049 0.625 11.0625 C-0.24125 11.05476562 -1.1075 11.04703125 -2 11.0390625 C-4.8074501 11.51004919 -5.64802988 12.22481953 -7.375 14.4375 C-8.60230311 16.89210622 -8.51499224 18.52214123 -8.53613281 21.2668457 C-8.55054413 22.77399895 -8.55054413 22.77399895 -8.56524658 24.31159973 C-8.5716214 25.94593208 -8.5716214 25.94593208 -8.578125 27.61328125 C-8.58382507 28.73059128 -8.58952515 29.84790131 -8.59539795 30.99906921 C-8.60485742 33.36712698 -8.61138567 35.73519796 -8.61523438 38.10327148 C-8.6249322 41.72468086 -8.65594419 45.34552099 -8.6875 48.96679688 C-8.69403067 51.26562162 -8.69928089 53.56445044 -8.703125 55.86328125 C-8.7154718 56.94676346 -8.7278186 58.03024567 -8.74053955 59.14656067 C-8.72343941 64.92557779 -8.68036466 69.13213534 -4.375 73.4375 C-2.1127642 73.67596903 -2.1127642 73.67596903 0.5 73.6875 C1.38429688 73.71328125 2.26859375 73.7390625 3.1796875 73.765625 C5.65442767 73.63405085 5.65442767 73.63405085 7.375 72.140625 C11.43519798 66.60860525 11.13423878 57.98098287 11.625 51.4375 C7.995 51.4375 4.365 51.4375 0.625 51.4375 C0.625 48.4675 0.625 45.4975 0.625 42.4375 C7.885 42.4375 15.145 42.4375 22.625 42.4375 C22.625 55.9675 22.625 69.4975 22.625 83.4375 C19.985 83.4375 17.345 83.4375 14.625 83.4375 C13.965 82.1175 13.305 80.7975 12.625 79.4375 C11.985625 80.05625 11.34625 80.675 10.6875 81.3125 C5.24894214 85.08619321 -0.05052788 85.90475463 -6.5625 84.875 C-11.23712315 83.71540356 -14.10993143 82.09126721 -17.375 78.4375 C-21.874612 70.59573247 -22.53379002 62.95408914 -22.578125 54.0859375 C-22.58382507 53.19065338 -22.58952515 52.29536926 -22.59539795 51.37295532 C-22.60481578 49.48188445 -22.61136909 47.5907974 -22.61523438 45.69970703 C-22.62489862 42.8424726 -22.65593567 39.98597096 -22.6875 37.12890625 C-22.82517746 13.55051348 -22.82517746 13.55051348 -17.0625 5.875 C-11.69897377 1.01040645 -6.99358071 -0.09821793 0 0 Z " fill="#FFFFFF" transform="translate(900.375,937.5625)"/>
<path d="M0 0 C3.96 0 7.92 0 12 0 C16.19280358 18.69890034 20.34198937 37.40765565 24.39334106 56.13775635 C24.79687748 58.00008534 25.20220427 59.86202732 25.60934448 61.72357178 C26.18208098 64.34460514 26.74813549 66.96699679 27.3125 69.58984375 C27.48399063 70.36856339 27.65548126 71.14728302 27.83216858 71.94960022 C28.65045636 75.78876637 29 79.03305682 29 83 C25.37 83 21.74 83 18 83 C15.59677007 76.43655692 14.91293601 69.9122298 14 63 C8.72 63 3.44 63 -2 63 C-2.28875 65.000625 -2.5775 67.00125 -2.875 69.0625 C-3.60826092 73.86012143 -4.49889972 78.38947773 -6 83 C-9.96 83 -13.92 83 -18 83 C-15.804007 72.47277 -13.60503929 61.94616626 -11.40223789 51.42035866 C-10.37955952 46.53314957 -9.35791949 41.64572815 -8.33862305 36.7578125 C-7.35549596 32.04353149 -6.36967985 27.32982023 -5.38197136 22.61649704 C-5.00501984 20.81531307 -4.62904904 19.01392358 -4.25406075 17.21232986 C-3.729968 14.69520649 -3.20243949 12.1788267 -2.67407227 9.66259766 C-2.51870499 8.91237839 -2.36333771 8.16215912 -2.20326233 7.38920593 C-1.11405216 2.22810432 -1.11405216 2.22810432 0 0 Z M5 23 C4.16080872 27.41557456 3.3296592 31.83262534 2.5 36.25 C2.26152344 37.50425781 2.02304687 38.75851562 1.77734375 40.05078125 C1.55175781 41.25605469 1.32617188 42.46132813 1.09375 43.703125 C0.88427734 44.81333008 0.67480469 45.92353516 0.45898438 47.06738281 C-0.10308518 50.16392891 -0.10308518 50.16392891 0 54 C3.96 54 7.92 54 12 54 C11.38331793 46.846488 10.33648034 39.91439226 8.9375 32.875 C8.6580957 31.44027344 8.6580957 31.44027344 8.37304688 29.9765625 C7.91940944 27.65021669 7.46167962 25.32476064 7 23 C6.34 23 5.68 23 5 23 Z " fill="#FFFFFF" transform="translate(827,938)"/>
<path d="M0 0 C3.96 0 7.92 0 12 0 C16.19280358 18.69890034 20.34198937 37.40765565 24.39334106 56.13775635 C24.79687748 58.00008534 25.20220427 59.86202732 25.60934448 61.72357178 C26.18208098 64.34460514 26.74813549 66.96699679 27.3125 69.58984375 C27.48399063 70.36856339 27.65548126 71.14728302 27.83216858 71.94960022 C28.65045636 75.78876637 29 79.03305682 29 83 C25.37 83 21.74 83 18 83 C15.59677007 76.43655692 14.91293601 69.9122298 14 63 C8.72 63 3.44 63 -2 63 C-2.28875 65.000625 -2.5775 67.00125 -2.875 69.0625 C-3.60826092 73.86012143 -4.49889972 78.38947773 -6 83 C-9.96 83 -13.92 83 -18 83 C-15.804007 72.47277 -13.60503929 61.94616626 -11.40223789 51.42035866 C-10.37955952 46.53314957 -9.35791949 41.64572815 -8.33862305 36.7578125 C-7.35549596 32.04353149 -6.36967985 27.32982023 -5.38197136 22.61649704 C-5.00501984 20.81531307 -4.62904904 19.01392358 -4.25406075 17.21232986 C-3.729968 14.69520649 -3.20243949 12.1788267 -2.67407227 9.66259766 C-2.51870499 8.91237839 -2.36333771 8.16215912 -2.20326233 7.38920593 C-1.11405216 2.22810432 -1.11405216 2.22810432 0 0 Z M5 23 C4.16080872 27.41557456 3.3296592 31.83262534 2.5 36.25 C2.26152344 37.50425781 2.02304687 38.75851562 1.77734375 40.05078125 C1.55175781 41.25605469 1.32617188 42.46132813 1.09375 43.703125 C0.88427734 44.81333008 0.67480469 45.92353516 0.45898438 47.06738281 C-0.10308518 50.16392891 -0.10308518 50.16392891 0 54 C3.96 54 7.92 54 12 54 C11.38331793 46.846488 10.33648034 39.91439226 8.9375 32.875 C8.6580957 31.44027344 8.6580957 31.44027344 8.37304688 29.9765625 C7.91940944 27.65021669 7.46167962 25.32476064 7 23 C6.34 23 5.68 23 5 23 Z " fill="#FFFFFF" transform="translate(704,938)"/>
<path d="M0 0 C5.00979529 2.80737585 7.71342634 6.71776438 9.3828125 12.16015625 C9.92774222 15.15959845 10.24188255 18.11606928 10.3828125 21.16015625 C6.55960693 22.58274437 3.46999945 23.40057901 -0.6171875 23.16015625 C-0.72675781 22.556875 -0.83632813 21.95359375 -0.94921875 21.33203125 C-2.0012793 15.0966254 -2.0012793 15.0966254 -5.6171875 10.16015625 C-8.84910191 9.17653013 -11.04836099 9.05673325 -14.3671875 9.66015625 C-16.91380855 11.07804342 -16.91380855 11.07804342 -18.1171875 14.34765625 C-18.70611786 18.83825025 -18.11775161 21.49213634 -15.6171875 25.16015625 C-11.9529187 29.39460875 -7.77293661 33.05425673 -3.5546875 36.72265625 C-2.24044282 37.86648806 -0.9279095 39.01228949 0.3828125 40.16015625 C1.01574219 40.71316406 1.64867187 41.26617188 2.30078125 41.8359375 C7.97275103 47.09671971 10.95692301 52.04176097 11.76171875 59.82421875 C11.98163078 67.01747032 12.12478043 72.54466791 7.3828125 78.16015625 C2.06275825 82.2859126 -1.77905656 83.32516416 -8.4296875 83.41015625 C-9.63238281 83.4359375 -10.83507812 83.46171875 -12.07421875 83.48828125 C-17.35798382 82.99893586 -21.33257352 81.06164137 -24.8046875 77.03515625 C-29.2466687 71.52057066 -31.16097204 65.22935523 -30.6171875 58.16015625 C-26.74034663 56.96728214 -23.70096827 56.16015625 -19.6171875 56.16015625 C-19.36324219 57.06378906 -19.10929687 57.96742188 -18.84765625 58.8984375 C-18.50347656 60.07792969 -18.15929687 61.25742187 -17.8046875 62.47265625 C-17.46824219 63.64441406 -17.13179687 64.81617188 -16.78515625 66.0234375 C-15.42884276 69.68474586 -15.42884276 69.68474586 -12.6171875 72.16015625 C-10.67016716 72.59489258 -10.67016716 72.59489258 -8.6171875 72.47265625 C-7.9365625 72.46878906 -7.2559375 72.46492187 -6.5546875 72.4609375 C-4.29527641 72.24923918 -4.29527641 72.24923918 -1.6171875 70.16015625 C-0.14651286 65.91545458 -0.10099967 61.4497265 -1.8046875 57.28515625 C-5.30658959 51.17207978 -11.32036435 46.68701073 -16.6171875 42.16015625 C-29.92316908 30.72130435 -29.92316908 30.72130435 -30.83984375 20.734375 C-31.08338276 13.75645306 -29.85054657 8.80492356 -25.2421875 3.34765625 C-18.50338771 -2.26801025 -8.19762745 -2.63058194 0 0 Z " fill="#FFFFFF" transform="translate(529.6171875,938.83984375)"/>
<path d="M0 0 C10.89 0 21.78 0 33 0 C33 3.3 33 6.6 33 10 C26.4 10 19.8 10 13 10 C13 18.58 13 27.16 13 36 C18.28 36 23.56 36 29 36 C29 38.97 29 41.94 29 45 C23.72 45 18.44 45 13 45 C13 54.57 13 64.14 13 74 C19.6 74 26.2 74 33 74 C33 76.97 33 79.94 33 83 C22.11 83 11.22 83 0 83 C0 55.61 0 28.22 0 0 Z " fill="#FFFFFF" transform="translate(949,938)"/>
<path d="M0 0 C12.87 0 25.74 0 39 0 C39 3.3 39 6.6 39 10 C34.71 10 30.42 10 26 10 C26 34.09 26 58.18 26 83 C21.71 83 17.42 83 13 83 C13 58.91 13 34.82 13 10 C8.71 10 4.42 10 0 10 C0 6.7 0 3.4 0 0 Z " fill="#FFFFFF" transform="translate(752,938)"/>
<path d="M0 0 C13.2 0 26.4 0 40 0 C40 3.3 40 6.6 40 10 C35.38 10 30.76 10 26 10 C26 34.09 26 58.18 26 83 C22.04 83 18.08 83 14 83 C14 58.91 14 34.82 14 10 C9.38 10 4.76 10 0 10 C0 6.7 0 3.4 0 0 Z " fill="#FFFFFF" transform="translate(560,938)"/>
<path d="M0 0 C6.7729162 5.52493164 10.66883576 12.19487428 12.78515625 20.66015625 C13.78628611 32.6737146 11.87069285 41.44875386 4.328125 51.17578125 C-2.12428432 58.16680736 -10.63313671 61.4653154 -19.96484375 62.66015625 C-23.69044322 62.60570169 -27.28936838 62.26067683 -30.96484375 61.66015625 C-30.96484375 61.33015625 -30.96484375 61.00015625 -30.96484375 60.66015625 C-30.2378125 60.64597656 -29.51078125 60.63179687 -28.76171875 60.6171875 C-18.67289885 60.13861527 -9.58582296 57.5468883 -1.96484375 50.66015625 C4.59051259 42.09232031 7.36872765 32.39458284 6.03515625 21.66015625 C3.2299072 11.53093265 -1.31481852 5.15818986 -10.3671875 -0.078125 C-15.88948982 -2.76038613 -20.37816056 -3.59559906 -26.52734375 -3.52734375 C-27.80738281 -3.52089844 -29.08742188 -3.51445313 -30.40625 -3.5078125 C-33.39421984 -3.3667777 -36.06532328 -3.03550605 -38.96484375 -2.33984375 C-28.2765501 -12.13744626 -10.46978578 -7.51534888 0 0 Z " fill="#F9F9F9" transform="translate(1069.96484375,576.33984375)"/>
<path d="M0 0 C-0.66 0.33 -1.32 0.66 -2 1 C-3.43997115 0.40794575 -4.8528398 -0.2504858 -6.25 -0.9375 C-14.04138317 -4.17357376 -22.98515001 -4.61815077 -30.875 -1.375 C-32.27596619 -0.63024846 -33.65250743 0.16236948 -35 1 C-35.70898438 1.43570313 -36.41796875 1.87140625 -37.1484375 2.3203125 C-44.06786166 7.02757875 -47.75169595 12.99288208 -50 21 C-51.19333487 32.71133294 -49.0773624 42.02829699 -41.703125 51.24609375 C-35.35300984 57.7855472 -27.55295331 60.11964415 -18.625 60.625 C-17.37976563 60.69976563 -16.13453125 60.77453125 -14.8515625 60.8515625 C-13.44003906 60.92503906 -13.44003906 60.92503906 -12 61 C-12 61.33 -12 61.66 -12 62 C-21.22219806 64.37992208 -29.39108156 62.87975258 -38 59 C-46.54523526 53.95648194 -52.01453764 46.98190302 -54.875 37.5 C-57.14494281 27.78518523 -56.37380624 19.26028491 -51.59375 10.390625 C-46.28382408 2.12517428 -39.6010232 -3.23770827 -30.125 -6 C-18.51509338 -8.36058204 -10.11603199 -5.86514621 0 0 Z " fill="#F8F8F8" transform="translate(633,576)"/>
<path d="M0 0 C3.24722006 3.09776642 6.00310402 6.68650595 7.8671875 10.78125 C7.3721875 12.26625 7.3721875 12.26625 6.8671875 13.78125 C6.51527344 13.27335938 6.16335938 12.76546875 5.80078125 12.2421875 C-0.39026166 3.61028956 -6.52451161 -1.83756771 -17.1328125 -4.21875 C-25.61612416 -5.14557781 -32.80397955 -4.76914725 -40.1328125 -0.21875 C-40.83019531 0.20535156 -41.52757812 0.62945313 -42.24609375 1.06640625 C-48.94926603 5.59830615 -53.62013285 12.08616857 -56.1328125 19.78125 C-56.41616966 22.21117135 -56.62084709 24.6512002 -56.7578125 27.09375 C-56.83257813 28.34800781 -56.90734375 29.60226562 -56.984375 30.89453125 C-57.03335938 31.84714844 -57.08234375 32.79976562 -57.1328125 33.78125 C-57.4628125 33.78125 -57.7928125 33.78125 -58.1328125 33.78125 C-59.88734937 22.63756987 -58.27365126 14.26648402 -52.1328125 4.78125 C-51.2975 3.4509375 -51.2975 3.4509375 -50.4453125 2.09375 C-36.0751892 -12.2763733 -15.51343159 -12.21137587 0 0 Z " fill="#F4F4F4" transform="translate(854.1328125,710.21875)"/>
<path d="M0 0 C-0.33 0.66 -0.66 1.32 -1 2 C-3.546875 2.44921875 -3.546875 2.44921875 -6.75 2.6875 C-7.79671875 2.77386719 -8.8434375 2.86023438 -9.921875 2.94921875 C-12.80491852 2.99678165 -15.21070489 2.68699305 -18 2 C-18 1.67 -18 1.34 -18 1 C-17.16855469 0.93941406 -16.33710937 0.87882813 -15.48046875 0.81640625 C-13.85044922 0.69072266 -13.85044922 0.69072266 -12.1875 0.5625 C-11.10855469 0.48128906 -10.02960938 0.40007813 -8.91796875 0.31640625 C-1.47272727 -0.49090909 -1.47272727 -0.49090909 0 0 Z " fill="#EEEFEF" transform="translate(1057,636)"/>
</svg>
